<?xml version="1.0" standalone="no"?>
<!DOCTYPE svg PUBLIC "-//W3C//DTD SVG 20010904//EN"
 "http://www.w3.org/TR/2001/REC-SVG-20010904/DTD/svg10.dtd">
<svg version="1.0" xmlns="http://www.w3.org/2000/svg"
 width="1920.000000pt" height="1080.000000pt" viewBox="0 0 1920.000000 1080.000000"
 preserveAspectRatio="xMidYMid meet">

<g transform="translate(0.000000,1080.000000) scale(0.100000,-0.100000)"
fill="#000000" stroke="none">
<path d="M3675 8278 c-37 -13 -80 -44 -170 -123 -38 -33 -82 -70 -96 -80 -15
-11 -84 -65 -155 -121 -142 -111 -465 -355 -596 -449 -233 -169 -400 -332
-495 -485 -100 -161 -156 -298 -193 -468 -47 -217 -51 -289 -56 -1177 -3 -462
-7 -845 -9 -851 -2 -6 -41 -19 -87 -29 -203 -43 -482 -157 -533 -217 -14 -16
-25 -40 -25 -52 0 -33 117 -256 151 -288 16 -16 40 -28 53 -28 13 0 70 22 127
49 176 84 360 132 609 161 160 18 512 24 645 11 218 -22 476 -89 693 -180 41
-17 96 -33 123 -37 27 -4 49 -7 49 -9 0 -1 -83 -84 -184 -186 -199 -199 -213
-219 -181 -273 10 -17 98 -107 195 -201 l176 -170 -128 -130 c-105 -107 -128
-136 -128 -159 0 -24 23 -52 128 -157 70 -70 137 -130 148 -133 27 -8 71 28
199 163 71 75 95 107 95 127 0 20 -23 51 -97 127 -54 55 -112 113 -129 129
l-31 28 177 176 c98 96 186 190 195 208 17 30 17 35 1 67 -9 19 -96 114 -194
210 l-177 176 55 10 c31 6 107 31 170 55 220 87 289 106 476 138 271 45 517
48 829 9 282 -36 416 -72 605 -163 52 -25 105 -46 116 -46 35 0 77 53 137 173
60 120 71 172 41 202 -55 55 -350 171 -561 220 l-72 17 -4 891 c-3 627 -7 916
-16 972 -31 208 -73 348 -147 499 -77 156 -162 267 -316 414 -66 63 -107 95
-553 431 -323 243 -520 398 -598 469 -38 35 -84 70 -103 78 -39 16 -116 17
-159 2z m237 -616 c152 -119 452 -348 501 -382 80 -55 305 -229 372 -286 180
-157 284 -350 331 -614 22 -126 35 -634 32 -1257 l-3 -543 -275 -4 c-277 -4
-407 -17 -602 -61 -116 -26 -299 -85 -412 -132 l-108 -46 -52 23 c-88 38 -326
118 -432 145 -217 54 -347 68 -640 69 l-272 1 -4 385 c-2 212 -1 601 3 865 7
458 9 485 32 601 44 213 131 379 275 522 46 47 227 191 452 360 401 300 509
383 580 443 25 21 48 38 52 39 4 0 81 -58 170 -128z"/>
<path d="M12433 7628 c-45 -49 -138 -175 -188 -252 l-34 -53 47 -35 c26 -19
105 -77 177 -128 l130 -92 17 23 c10 13 65 88 123 167 58 79 103 147 100 152
-7 11 -321 260 -328 260 -2 0 -22 -19 -44 -42z"/>
<path d="M7545 7272 c-6 -31 -133 -397 -239 -687 -21 -59 -150 -420 -426
-1195 -27 -74 -55 -154 -64 -177 l-15 -43 157 0 c86 0 187 -3 223 -6 l66 -7
31 99 c18 55 50 155 72 224 22 68 40 130 40 137 0 10 73 13 368 13 l368 0 68
-207 c37 -115 71 -218 76 -230 10 -23 10 -23 246 -23 221 0 236 1 229 18 -4 9
-26 71 -50 137 -51 143 -324 893 -460 1265 -169 463 -235 651 -237 681 l-2 29
-201 1 c-110 0 -210 2 -221 5 -18 3 -23 -3 -29 -34z m339 -892 c57 -179 107
-335 111 -347 l6 -23 -241 0 c-225 0 -241 1 -236 18 3 9 53 168 112 352 58
184 109 346 112 360 l5 24 13 -29 c7 -17 60 -176 118 -355z"/>
<path d="M9080 7070 l0 -230 -120 0 -120 0 0 -180 0 -180 120 0 120 0 0 -394
c0 -466 8 -550 68 -686 24 -57 102 -143 156 -175 102 -59 150 -70 311 -70 124
0 164 4 233 23 78 21 152 57 167 82 4 6 4 92 0 191 l-8 180 -32 -31 c-86 -83
-323 -106 -416 -39 -77 55 -88 125 -89 562 l0 357 220 0 220 0 0 180 0 180
-217 2 -218 3 -3 228 -2 227 -195 0 -195 0 0 -230z"/>
<path d="M13880 6870 c-94 -9 -187 -44 -286 -106 -47 -30 -88 -54 -90 -54 -2
0 -4 29 -4 65 l0 65 -192 -2 -193 -3 0 -830 0 -830 195 -3 195 -2 -3 560 -3
561 38 47 c58 71 92 99 163 135 57 28 74 32 145 32 139 0 211 -55 263 -198
l27 -72 2 -375 c2 -206 4 -445 6 -530 l2 -155 215 -6 c118 -3 217 -4 219 -2 2
2 -4 11 -13 22 -30 33 -36 133 -36 631 0 289 -4 511 -11 550 -32 199 -141 362
-294 441 -103 54 -215 73 -345 59z"/>
<path d="M10932 6849 c-325 -54 -569 -312 -638 -675 -21 -112 -21 -320 0 -426
49 -249 208 -451 425 -543 91 -38 180 -55 296 -55 155 0 279 41 402 132 l53
39 0 -386 0 -385 193 2 192 3 3 1143 c1 628 -1 1142 -5 1142 -5 0 -88 -14
-186 -32 -157 -28 -182 -30 -210 -19 -82 34 -148 53 -212 61 -86 11 -241 11
-313 -1z m366 -358 c40 -11 95 -33 122 -51 l50 -32 0 -351 0 -351 -67 -66
c-110 -107 -228 -148 -371 -130 -181 23 -307 139 -351 324 -15 62 -16 235 -1
301 41 187 144 313 295 361 62 20 237 17 323 -5z"/>
<path d="M12230 6005 l0 -835 200 0 200 0 0 835 0 835 -200 0 -200 0 0 -835z"/>
<path d="M9550 4324 c-26 -37 -30 -48 -19 -55 8 -4 30 -19 49 -32 l34 -24 34
44 c19 24 32 45 30 46 -1 1 -22 17 -45 35 -23 17 -44 32 -46 32 -2 0 -19 -21
-37 -46z"/>
<path d="M7570 4025 l1 -315 54 0 55 0 0 315 0 315 -55 0 -55 0 0 -315z"/>
<path d="M16394 4325 c-3 -8 -4 -124 -2 -258 l3 -243 27 -41 c34 -52 86 -77
163 -77 124 1 202 78 213 211 12 148 -84 255 -215 241 -27 -3 -56 -9 -65 -13
-16 -7 -18 2 -18 94 l0 101 -50 0 c-35 0 -52 -4 -56 -15z m270 -293 c14 -16
29 -45 33 -66 7 -43 -17 -114 -48 -142 -29 -26 -100 -26 -128 0 -20 18 -21 28
-19 115 3 90 4 96 28 108 14 7 43 13 66 13 31 0 46 -6 68 -28z"/>
<path d="M12870 4015 l0 -305 50 0 50 0 0 149 0 149 31 27 c40 33 84 31 111
-5 16 -23 19 -45 20 -173 l1 -147 56 0 56 0 -5 172 c-5 147 -9 178 -25 205
-41 67 -134 92 -208 54 l-37 -19 0 99 0 99 -50 0 -50 0 0 -305z"/>
<path d="M9107 4273 c-4 -3 -7 -132 -7 -285 l0 -278 55 0 55 0 0 74 0 74 48 7
c106 16 164 60 188 143 35 120 -18 232 -124 262 -41 11 -205 14 -215 3z m192
-107 c91 -48 52 -205 -51 -206 l-38 0 0 110 0 110 30 0 c17 0 43 -6 59 -14z"/>
<path d="M11872 4272 c-9 -6 -12 -73 -13 -281 0 -150 2 -276 6 -279 14 -14
249 -8 285 7 81 34 120 89 120 169 0 38 -33 122 -47 122 -4 1 -19 10 -32 21
-23 19 -23 20 -6 39 12 14 19 37 19 69 2 99 -64 140 -224 140 -52 1 -101 -3
-108 -7z m209 -103 c16 -16 20 -28 15 -53 -8 -41 -30 -56 -83 -56 l-43 0 0 65
0 65 45 0 c32 0 51 -6 66 -21z m54 -223 c19 -13 25 -25 25 -54 0 -57 -55 -102
-124 -102 -64 0 -66 3 -66 97 l0 86 70 -5 c40 -3 80 -12 95 -22z"/>
<path d="M6840 4060 c0 -211 0 -211 -25 -235 -13 -14 -36 -25 -50 -25 -32 0
-81 24 -94 47 -8 14 -10 2 -11 -49 l0 -66 45 -17 c56 -22 135 -16 173 12 62
46 67 67 72 316 l5 227 -57 0 -58 0 0 -210z"/>
<path d="M10288 4213 c-3 -58 -3 -58 -36 -61 -33 -3 -33 -4 -30 -50 3 -45 4
-47 33 -47 l30 -1 5 -136 c4 -118 8 -140 26 -165 27 -36 77 -54 134 -46 72 9
80 17 80 75 0 39 -3 48 -12 40 -7 -6 -29 -13 -50 -17 -29 -6 -40 -3 -57 14
-20 20 -21 31 -19 129 l3 107 55 0 55 0 3 48 3 47 -60 0 -61 0 0 60 0 60 -50
0 -49 0 -3 -57z"/>
<path d="M15130 4003 c-52 -146 -96 -272 -98 -280 -3 -10 11 -13 56 -13 l59 0
18 60 18 60 97 0 97 0 18 -60 18 -60 63 0 64 0 -39 108 c-21 59 -67 185 -101
280 l-63 172 -56 0 -56 0 -95 -267z m184 22 c14 -44 26 -83 26 -88 0 -4 -27
-7 -60 -7 -33 0 -60 3 -60 7 0 23 55 182 61 176 3 -5 18 -44 33 -88z"/>
<path d="M7153 4144 c-56 -17 -59 -23 -47 -82 6 -31 7 -31 36 -16 42 22 122
29 157 14 17 -7 34 -23 39 -40 l10 -27 -75 -7 c-87 -7 -166 -44 -189 -88 -33
-64 -3 -147 64 -175 50 -22 148 -22 188 -1 29 16 32 16 51 -4 l21 -20 38 35
c37 34 38 36 21 54 -14 16 -17 40 -18 129 0 129 -11 167 -61 207 -32 26 -47
30 -110 33 -47 2 -91 -2 -125 -12z m197 -283 c0 -48 -1 -50 -36 -61 -39 -13
-97 -8 -120 11 -30 24 -10 75 36 92 8 3 39 6 68 6 l52 1 0 -49z"/>
<path d="M7878 4145 c-26 -9 -50 -19 -53 -25 -3 -5 -3 -26 1 -48 l6 -39 49 18
c92 35 167 20 183 -37 6 -20 2 -21 -69 -27 -141 -12 -218 -79 -200 -174 5 -27
53 -93 69 -93 1 0 28 -5 60 -11 46 -8 67 -7 112 6 53 15 57 15 75 -1 19 -17
21 -17 55 17 34 34 34 36 19 65 -11 21 -15 60 -15 140 0 121 -11 152 -72 197
-36 27 -154 33 -220 12z m192 -285 c0 -49 0 -49 -39 -61 -82 -24 -151 16 -121
70 15 29 44 40 108 40 l52 1 0 -50z"/>
<path d="M8457 4140 c-31 -17 -37 -17 -37 -5 0 12 -13 15 -55 15 l-55 0 2
-217 3 -218 53 -3 52 -3 0 155 0 155 26 20 c26 21 79 28 100 13 28 -18 35 -57
36 -184 0 -72 2 -137 5 -145 3 -8 23 -13 54 -13 l49 0 -1 158 c-1 193 -15 239
-86 276 -43 22 -100 20 -146 -4z"/>
<path d="M9903 4141 c-35 -16 -43 -17 -43 -6 0 11 -13 15 -50 15 l-50 0 0
-220 0 -220 50 0 50 0 0 150 0 149 27 26 c20 17 39 25 66 25 31 0 40 -5 57
-32 17 -29 20 -51 20 -175 l0 -143 53 0 52 0 -3 167 c-4 183 -12 217 -64 256
-39 29 -113 32 -165 8z"/>
<path d="M10693 4143 c-56 -16 -59 -21 -47 -81 6 -31 7 -31 35 -16 36 18 109
29 143 20 31 -8 56 -32 56 -55 0 -15 -11 -19 -64 -23 -84 -7 -169 -46 -190
-87 -21 -41 -20 -89 4 -128 23 -39 45 -51 115 -64 45 -8 67 -7 111 6 52 15 57
15 75 -1 17 -15 20 -14 55 19 34 32 36 37 23 53 -10 12 -16 54 -19 143 -5 112
-8 130 -29 160 -48 66 -154 88 -268 54z m197 -277 c0 -52 -15 -67 -73 -73 -51
-5 -91 14 -95 45 -7 46 33 70 116 71 l52 1 0 -44z"/>
<path d="M11197 4146 c-20 -7 -44 -20 -53 -27 -24 -19 -44 -65 -44 -98 0 -75
48 -114 168 -140 72 -15 77 -18 80 -43 3 -23 -2 -30 -25 -39 -38 -15 -118 -4
-174 24 l-47 23 -5 -46 c-8 -58 10 -74 98 -89 59 -11 92 -10 162 5 40 8 91 61
98 103 13 80 -41 143 -135 157 -74 11 -110 29 -110 57 0 14 7 28 16 31 33 13
110 6 146 -14 41 -22 47 -18 61 41 6 22 2 28 -31 44 -49 23 -156 29 -205 11z"/>
<path d="M12425 4142 l-50 -17 3 -45 c2 -24 4 -45 6 -47 1 -2 17 4 35 13 18 9
58 18 89 21 62 6 94 -10 106 -53 6 -20 2 -21 -62 -27 -156 -13 -236 -89 -202
-191 23 -72 146 -112 241 -81 48 16 51 16 70 -1 19 -17 21 -17 56 18 32 33 35
39 22 54 -10 12 -16 57 -19 150 l-6 134 -34 35 c-55 57 -155 71 -255 37z m195
-281 c0 -48 -1 -50 -35 -61 -80 -26 -154 15 -125 69 15 29 44 40 108 40 l52 1
0 -49z"/>
<path d="M13438 4145 c-26 -9 -50 -19 -53 -25 -3 -5 -3 -26 1 -48 l6 -38 56
19 c62 21 135 19 157 -4 7 -8 16 -24 20 -36 6 -22 3 -23 -43 -23 -70 0 -148
-26 -188 -63 -66 -60 -51 -159 29 -200 46 -23 148 -28 195 -8 29 12 35 12 53
-5 19 -17 21 -17 55 17 34 34 34 36 19 65 -11 21 -15 60 -15 140 0 121 -11
152 -72 197 -36 27 -154 33 -220 12z m192 -285 l0 -49 -42 -11 c-83 -23 -148
15 -118 69 15 29 44 40 108 40 l52 1 0 -50z"/>
<path d="M13950 4148 c-52 -15 -87 -44 -100 -84 -28 -83 23 -153 127 -174 101
-21 108 -24 111 -53 3 -21 -3 -30 -22 -38 -35 -16 -126 -3 -181 26 l-45 24 0
-53 0 -54 43 -17 c59 -25 190 -25 237 -1 40 21 52 33 68 63 29 53 1 138 -55
166 -15 8 -55 20 -88 27 -74 15 -95 26 -95 48 0 31 22 42 80 42 38 0 65 -6 89
-21 18 -11 34 -19 35 -17 9 15 26 62 26 72 0 8 -22 23 -49 35 -53 22 -122 26
-181 9z"/>
<path d="M14378 4145 c-26 -9 -50 -19 -53 -25 -3 -5 -3 -27 1 -49 l6 -40 32
16 c19 10 57 17 98 17 71 1 90 -8 103 -51 6 -22 3 -23 -43 -23 -158 0 -263
-96 -219 -202 28 -68 138 -101 235 -73 50 15 55 15 73 -1 19 -17 21 -17 55 17
34 34 34 36 19 65 -10 20 -15 59 -15 131 0 122 -15 167 -65 202 -45 31 -156
38 -227 16z m190 -287 c-3 -52 -4 -52 -41 -61 -83 -20 -146 19 -117 72 15 29
44 40 108 40 l53 1 -3 -52z"/>
<path d="M15722 4144 c-12 -8 -22 -10 -22 -5 0 7 -23 11 -55 11 l-55 0 0 -220
0 -220 55 0 55 0 0 159 c0 154 1 160 22 175 26 18 61 20 89 6 18 -10 19 -7 19
50 l0 60 -43 0 c-23 0 -53 -7 -65 -16z"/>
<path d="M15968 4145 c-57 -18 -61 -25 -53 -74 l6 -38 52 18 c91 32 158 20
176 -31 l9 -27 -74 -7 c-129 -10 -204 -64 -204 -146 0 -99 115 -158 245 -125
53 14 59 14 76 -1 17 -15 20 -14 56 20 31 30 35 38 23 46 -11 7 -16 40 -20
142 -4 74 -11 143 -18 155 -7 12 -28 34 -48 49 -29 22 -47 28 -107 30 -46 3
-89 -2 -119 -11z m192 -285 l0 -49 -42 -11 c-70 -19 -128 1 -128 45 0 42 39
63 118 64 l52 1 0 -50z"/>
<path d="M9520 3930 l0 -220 55 0 55 0 0 220 0 220 -55 0 -55 0 0 -220z"/>
</g>
</svg>
